<?xml version="1.0" encoding="utf-8"?>
<svg xmlns="http://www.w3.org/2000/svg" viewBox="138.1341 54.3495 209.4487 250.2578" width="1713.28px" height="2047.1px" preserveAspectRatio="none"><path d=" M 138.48 142.111 C 139.274 137.031 139.897 132.241 142.007 127.471 C 147.748 114.493 160.17 107.587 170.959 99.288 C 182.7 90.257 194.648 81.468 206.513 72.598 C 212.734 67.947 218.694 62.395 225.558 58.71 C 231.624 55.454 239.111 53.866 245.977 54.479 C 259.263 55.664 268.932 64.737 279.2 72.274 C 288.434 79.05 297.632 85.896 306.655 92.951 C 309.799 95.409 313.587 97.633 316.389 100.461 C 314.646 102.611 312.337 104.419 310.355 106.355 C 306 110.608 301.593 114.805 297.259 119.08 C 282.46 133.678 267.497 148.099 252.397 162.384 C 247.249 167.255 242.144 172.166 236.96 176.998 C 235.648 178.222 234.248 179.413 233.04 180.74 C 232.756 181.052 232.197 181.889 231.721 181.888 C 224.496 176.145 217.95 169.128 211.263 162.762 C 208.036 159.69 205.036 155.863 201.046 153.755 C 193.385 149.708 183.902 153.131 179.944 160.629 C 177.354 165.536 177.681 171.845 180.782 176.44 C 182.697 179.278 185.399 181.411 187.877 183.726 C 191.095 186.732 194.236 189.819 197.441 192.837 C 202.604 197.699 207.72 202.635 212.758 207.627 C 215.252 210.099 217.581 212.837 220.34 215.022 C 224.744 218.51 230.3 220.147 235.815 218.569 C 241.418 216.965 244.656 212.827 248.781 209.073 C 255.219 203.215 261.468 197.156 267.739 191.116 C 283.673 175.769 299.655 160.467 315.67 145.199 C 323.894 137.359 331.674 128.719 340.531 121.596 C 343.798 127.452 345.78 133.119 347.13 139.668 C 347.658 142.227 347.398 145.082 347.391 147.68 C 347.378 152.288 347.366 156.897 347.365 161.505 C 347.364 174.507 347.397 187.508 347.403 200.51 C 347.406 207.052 347.989 213.923 347.039 220.411 C 346.049 227.17 343.632 233.208 339.88 238.898 C 335.66 245.297 328.888 249.305 322.986 253.946 C 313.141 261.686 302.862 268.879 292.902 276.471 C 285.813 281.876 278.578 287.094 271.476 292.486 C 263.292 298.7 255.142 304.137 244.507 304.577 C 237.406 304.87 230.28 303.027 224.137 299.484 C 219.467 296.791 215.227 292.982 210.94 289.724 C 200.79 282.008 190.57 274.372 180.321 266.788 C 174.418 262.421 168.524 258.019 162.554 253.742 C 154.365 247.876 146.349 242.092 142.063 232.647 C 136.958 221.398 138.291 208.523 138.291 196.506 C 138.291 184.84 138.312 173.173 138.313 161.506 C 138.314 155.079 137.941 148.52 138.48 142.111 Z" opacity="1" fill="rgb(25,25,24)" fill-rule="evenodd" id="object-0" transform="matrix(1, 0, 0, 1, 1.4210854715202004e-14, 0)"/></svg>